<svg version="1.2" xmlns="http://www.w3.org/2000/svg" viewBox="0 0 729 822" width="729" height="822">
	<title>image</title>
	<style>
		.s0 { fill: #ffffff } 
	</style>
	<path id="Layer" fill-rule="evenodd" class="s0" d="m163.5 10.5c3.7-8.2 5.3-9.3 6-8.4v-0.1c22.5 19.3 37.1 28.7 64.5 33 87.4-26.1 137.2-25.5 221.2-0.1q0.3-0.1 0.5-0.1c29.1-4.2 42.4-11.5 62.4-29.3 0.5-0.4 1.1-0.6 1.7-0.5 0.8-0.2 2.4 1.4 5.7 8.7 5.7 12.6-3.9 54.9-35.7 81.8 41.9 47.8 49.4 84.6 46.7 159 40.2 51.8 46.3 67.6 45.5 141l-13 5v-0.5c0.4-60.3 0.6-90-45.5-140q0-1.3 0-2.5 0-1.2 0-2.4v-1.2-0.1-0.2c-0.2-67.3-0.4-106.5-44.3-150.4q-5.4 3.5-11.6 6.4c26.8 24 43.4 55.7 43.4 90.4-6.7 55.9-33.9 94.1-74.6 115.4 34 5.9 44 70.7 32.8 140.9-57.6 31.8-98.7 97.6-104.5 175.3-60.5-8.9-158.4-155.2-144.2-250.1 6.5-43.7 20.7-59.6 39.5-63.8-49-23.6-82-67.5-82-117.7 0-36 16.9-68.8 44.6-93.1-4.8-2.1-9.2-4.5-13.3-7.2-43.5 43.7-43.6 82.9-43.8 149.9v0.1 0.2q0 3 0 6.1h0.1c-96.3 114.5 10.9 328.4 48 351-58-32.8-169.4-251.3-61.1-356.4-2.7-74.2 4.8-111.1 46.3-158.7-31.5-26.8-41-68.8-35.3-81.4zm50.1 596.5q1 0.5 1.9 1-0.9-0.4-1.9-1zm241.4-559.7v0.2c-91.3-22.4-139.3-21.9-221 0.5-26.8-6.3-41.1-11.1-61.9-26.6 5.4 30.5 19.9 49.6 62.2 76.2q0.1-0.1 0.3-0.2c11.8 7.2 25.2 13.6 39.9 19.2 40.5 21.9 51.6 38.5 67.8 62.8q2.5 3.7 5.2 7.6 2.5-3.9 4.8-7.5v-0.1c16.7-26.1 26.9-42.1 63.5-61 15.3-5.6 28.6-11.7 40-18.4 41.5-26.1 55.8-45.2 61.1-75.4-19.3 13.3-51.6 21-60.5 22.9-0.5 0.1-1 0-1.4-0.2zm-216.9 93.1l8.6 13.7-24.5-0.6 20.8 8.6 0.7-0.2c-9.5 7.3-15.7 18.6-15.7 31.6 0 22.4 18.4 40.5 41 40.5 12.2 0 23.2-5 30.7-13.1q0 0.6 0.3 1.1l20.5 38.3 24.4 49.9c0.8 1.5 2.9 1.5 3.6 0l24-49.9 20.2-36.5c7.1 6.4 16.5 10.2 26.8 10.2 22.4 0 40.5-18.1 40.5-40.5 0-12.5-5.7-23.7-14.5-31.1l0.5 0.1 21-8h-24.5l9-13.5-34.3 12.4c-7.5 1.7-17.5 7.7-25.5 16.2q-0.1 0.1-0.3 0.3c-2.7 2.7-6.6 7.4-9.9 13.6-8.8 16.7-20 45.4-24 55.9-0.6 1.6-2.8 1.7-3.6 0.2l-5.4-9.5c-0.8-1.4-2.7-1.4-3.5 0l-5.4 9.6c-0.8 1.5-2.9 1.4-3.6-0.2-11.7-28.7-19.7-44.6-28.3-58.7-5.7-11.4-19.3-23.1-32-26.4zm45.9 53.6c0 8.3-6.7 15-15 15-8.2 0-15-6.7-15-15 0-8.3 6.8-15 15-15 8.3 0 15 6.7 15 15zm121 0c0-8.3 6.8-15 15-15 8.3 0 15 6.7 15 15 0 8.3-6.7 15-15 15-8.2 0-15-6.7-15-15zm-31 504c1.6-52.5 6.2-80.6 27-126.5 25.4-45.1 65.5-84.5 81-96.5 15.5-12 108.5-70.9 182-103.5l19 37c-77.1 25-162.5 71-187 89-24.5 18-54.9 48.1-79.5 87.5-22.5 42.9-31.1 67.8-42.5 113zm-2 54.5c7.9-23.5 15-36.6 37-60 22.5-20.4 36.1-30.2 62-45.5 30.7-15 49.5-20.9 86-26.5 37.4-4.1 57.5-3.9 92.5 0l67.5 76.5c-35.4-6.2-56-9.1-97.5-11-37.6 1.6-58.4 3.4-94.5 11-28.7 6.5-44.4 11.7-71.5 24-27.7 11.6-40.4 20.5-60 39zm40.8-17l0.2-0.2c8.8-6.9 14.7-11.4 22.5-17.3 11.2-8.1 17.7-12.2 29.5-19 24.5-12.1 39.1-17.6 66.5-25.5 27.6-5.9 43-7.7 70-8.5 31.1 0.4 48.3 1.4 78.5 4.5v-9c-30.3-3.8-47.5-5.3-78.5-6.5-29.6 0.2-45.7 2-73 9-27.3 6.9-42.3 12.8-68.5 28.5-11.6 8.4-17.9 13.3-28 22.5-10 9.2-14.1 12.9-22.5 24q1.7-1.3 3.3-2.5zm-103.6 55.4c-1.5-2 1.6-4.2 3.5-2.6 14 12.4 31.7 19.7 50.8 19.7 19.2 0 36.8-7.3 50.9-19.7 1.8-1.6 5 0.6 3.5 2.6-13.9 18.6-33.1 30.1-54.4 30.1-21.2 0-40.5-11.5-54.3-30.1zm413-384.5c1.9-0.5 3.9 0.5 4.7 2.3l0.7 1.6c0.4 1 0.4 2 0.1 3l0.3-0.3-136.5 194h-13l124.5-175.1c-78.7 16.4-140.2 42.9-198.5 87.6-60 46.1-83.9 97.9-118.5 172.7q-1 2.1-2 4.3c24.9-77.5 59-141.5 110.5-185.5 50.9-43.5 133.6-78.4 227.7-104.6zm-404.7 283.6c21.5 23.7 28.7 37.5 36.5 61.6l-21.9 7.9c-19.9-19.4-32.9-28.7-61.2-40.9-27.6-13-43.6-18.4-73-25.2-36.8-8-58-9.9-96.4-11.5-42.3 2-63.3 5-99.5 11.5l68.9-80.3c35.7-4 56.3-4.3 94.4 0 30.1 4.8 48.4 9.7 70.8 19.7 2.1-4.9 12.8-9 23.4-9.8 13.7 3.5 18.7 7.8 23.5 19.5 0 0 25.5-1 30.5 2.5 5 3.5 4.5 8.5 4.5 8.5-0.4 5.6-1.1 8.6-3.5 13.5l-8.4 12.4q0.1 0 0.1 0.1l-4.7 6.5c0 0 1-3.8 2.1-8.8q0 0 0 0c2-8.5 4.4-20.6 3.4-23.7-1.5-5-19.6-6.9-22-3-1.6 2.6-1.4 7.1-1.3 9.6q0 0.6 0 1 0.2 0.2 0.5 0.4c0.2 8.2 1.4 18.7 2.3 23.5 1.5 8 5 16.5 15 17 7.3 0.4 13.3-7 16-12zm-70-52l-1.6 10.1c-1.1 8.1-2.2 16.8-2.2 16.8l-0.7-2.8c-1.7-4.9-7.3-20.9-7.2-27.3-3.3 9.6-5.3 18.5-4.3 26.7 0.4 3.1 1.6 6.7 3.5 10.3-11-4.7-22-8.2-36.2-11.9-27.9-7.3-44.2-9.2-74.5-9.4-31.6 1.2-49.1 2.8-80.1 6.8v9.4c30.8-3.2 48.4-4.3 80.1-4.7 27.6 0.8 43.2 2.7 71.4 8.9 28 8.3 42.9 14.1 67.8 26.8 12.1 7.1 18.8 11.4 30.1 19.9 8.1 6.2 14.1 11 23 18.1l2 1.6 1.6 1.3c-8.6-11.6-12.7-15.5-23-25.2-10.3-9.7-16.7-14.7-28.6-23.6q-5.2-3.2-9.9-5.9c7.4-3.9 14.7-13.7 19.4-24q0.5-1.1 0.8-2.3 0 0.1 0.1 0.2c-0.3-4.7-9.3-34.7-31.5-19.8z"/>
	<path id="Layer" fill-rule="evenodd" class="s0" d="m169.5 2.1l-0.4 0.3 1.1 1.3-0.2-1.7zm0.4-0.3q-0.2-0.3-0.6-0.4-0.3-0.1-0.7 0-0.6 0.3-1.4 1.2c-0.9 1.2-2.3 3.6-4.2 7.7l1 0.5c1.8-4.2 3.1-6.4 4-7.6 0.5-0.5 0.8-0.8 1-0.8q0 0 0 0 0.1 0 0.1 0 0 0 0 0 0 0 0 0zm-0.4 0.3l0.3-0.4-0.9-0.8 0.1 1.2zm64.7 46.5c40.8-11.2 73.2-16.9 106.7-17 33.6-0.2 68.4 5.3 114 16.5l0.2-1c-45.6-11.2-80.5-16.7-114.2-16.5-33.7 0.1-66.1 5.8-107 17zm221.1-13.5l-0.2 0.5h0.2l0.2-0.1zm0.4-0.6q-0.3 0-0.6 0.2l0.4 0.9q0.2-0.1 0.4-0.1zm64.2-29.8c-0.7-0.1-1.5 0.1-2.1 0.7l0.6 0.7c0.4-0.3 0.9-0.4 1.3-0.4zm6.1 9c-1.6-3.7-2.9-5.9-3.8-7.2q-0.7-1-1.3-1.5c-0.4-0.2-0.8-0.4-1.2-0.3l0.3 1q0 0 0 0 0 0 0 0 0.1 0 0.3 0.2c0.3 0.1 0.6 0.5 1.1 1.1 0.8 1.3 2 3.5 3.7 7.1zm-35.9 82.4c16-13.5 26.4-30.9 32.1-46.5 2.9-7.7 4.5-15.1 5.1-21.3 0.6-6.2 0.2-11.3-1.3-14.6l-0.9 0.4c1.3 3 1.8 8 1.2 14.1-0.6 6.1-2.2 13.4-5 21.1-5.7 15.4-16 32.7-31.8 46zm26.3-71.3c-2.7 15-7.5 27.2-16.9 39-9.4 11.7-23.3 23-43.9 36l0.5 0.9c20.7-13.1 34.7-24.4 44.2-36.3 9.5-11.9 14.4-24.3 17.1-39.5zm20.1 230h-0.5v0.2l0.1 0.2zm127.3 116.5c-73.6 32.6-166.6 91.5-182.1 103.5l0.6 0.8c15.4-11.9 108.3-70.8 181.9-103.4zm-94.8 29.4h-0.5v0.8l0.7-0.3zm0.1 0.5l13-5-0.3-1-13 5zm-45.7-140.9h-0.5v0.2l0.1 0.1zm-0.5-2.5q0 1.3 0 2.5h1q0-1.2 0-2.5zm0-2.4q0 1.2 0 2.4h1q0-1.2 0-2.4zm14-0.6c1.4-37.2 0.2-65-6.6-89.6-6.8-24.6-19.2-45.8-40.2-69.7l-0.8 0.6c20.9 23.9 33.2 45 40 69.4 6.8 24.4 8 52.1 6.6 89.3zm-14-0.8v0.1h1v-0.1zm0-0.1v0.1h1v-0.1zm-43.7-150.4l0.3-0.4-0.3-0.2-0.3 0.2zm-11.7 6.3l-0.2-0.5-0.7 0.4 0.6 0.5zm11.3-6c21.9 21.9 32.9 42.6 38.4 66.2 5.5 23.6 5.6 50.2 5.7 83.9h1c-0.1-33.7-0.2-60.4-5.7-84.1-5.6-23.8-16.7-44.7-38.7-66.7zm-42.5 211.8l-0.2-0.4-1.3 0.7 1.4 0.2zm32.8 140.9l0.2 0.5 0.3-0.2v-0.2zm-104.5 175.3v0.5l0.5 0.1v-0.6zm-144.7-250.2c-7.1 47.7 13.9 108.1 44.2 157.7 15.1 24.8 32.6 46.9 50.1 63.4 17.5 16.5 35.1 27.4 50.4 29.6l0.1-0.9c-15-2.3-32.3-13-49.8-29.4-17.4-16.5-34.8-38.5-49.9-63.3-30.3-49.5-51.1-109.6-44.1-156.9zm40-63.8l0.1 0.5 1.4-0.3-1.3-0.6zm-37.4-210.8l0.4 0.4 0.6-0.5-0.8-0.3zm-13.3-7.2l0.3-0.4-0.4-0.2-0.3 0.2zm-43.2 150c0.1-33.6 0.2-60.1 5.7-83.7 5.4-23.5 16.3-44.1 37.9-65.9l-0.7-0.7c-21.8 21.9-32.7 42.7-38.2 66.4-5.5 23.7-5.6 50.3-5.7 83.9zm32.4-158.1c-20.8 23.8-33.1 45-39.8 69.6-6.8 24.5-8 52.3-6.6 89.4h1c-1.4-37.1-0.2-64.8 6.5-89.2 6.7-24.3 18.9-45.4 39.6-69.1zm-32.3 158.3v-0.3h-1v0.3zm47.8 356.6c-4.6-2.8-10.2-8.5-16.5-16.7-6.3-8.2-13.1-18.9-20-31.4-13.8-24.9-27.6-57.3-37.3-92.6-19.4-70.6-22.1-152.5 25.9-209.5l-0.8-0.7c-48.2 57.5-45.5 139.8-26.1 210.5 9.7 35.3 23.6 67.8 37.4 92.8 6.9 12.5 13.8 23.2 20.1 31.5 6.3 8.2 12.1 14.1 16.8 17zm-61.7-356.4c-54.4 52.8-53.5 133.9-32 205.9 10.8 35.9 26.8 69.7 43.7 96.4 17 26.8 34.9 46.7 49.5 54.9l0.5-0.8c-14.4-8.2-32.2-27.9-49.1-54.6-16.9-26.7-32.8-60.3-43.6-96.2-21.5-71.8-22.3-152.5 31.7-204.8zm0.3 0.3l0.3 0.4 0.2-0.2v-0.2zm82.1-153.5c-21.1-13.2-35.3-24.6-44.8-36.4-9.6-11.9-14.5-24.2-17.2-39.4l-1 0.2c2.7 15.3 7.7 27.8 17.4 39.8 9.6 12 23.9 23.4 45.1 36.7zm-19.1 510.9l-0.2 0.4 0.4-0.9zm239.5-560.5l-0.1 0.5 0.6 0.1v-0.6zm0-0.2l0.3-0.4-0.7-0.4-0.1 0.8zm-221 0.7l-0.1 0.5h0.1 0.1zm0.1-13.5c-13.7-2.1-24.1-5.6-33.9-10.8-9.8-5.3-19.1-12.5-30.3-22.1l-0.7 0.8c11.3 9.6 20.6 16.8 30.5 22.2 10 5.3 20.5 8.7 34.3 10.9zm0.2 63l-0.3 0.5 0.3 0.1 0.3-0.2zm0.3-0.2l0.2-0.4-0.3-0.2-0.2 0.2zm39.9 19.3l0.2-0.4zm68.2 62.4c-8.1-12.1-15-22.4-24.9-32.4-9.9-9.9-22.8-19.6-43.1-30.5l-0.5 0.9c20.3 10.9 33.1 20.5 42.9 30.3 9.9 9.9 16.7 20.1 24.8 32.2zm-0.4 0.3l-0.4 0.3zm0.4-0.3l-0.9 0.6zm4.8 7.9l-0.4 0.3 0.4 0.6 0.4-0.6zm4.8-7.6l-0.4-0.2zm0 0l0.4 0.2zm63.5-61.1l-0.2-0.4zm40-18.4l0.3-0.4-0.3-0.2-0.3 0.2zm0.1 0l-0.3 0.4 0.3 0.2 0.2-0.2zm62-94.8c-10 8.8-18.3 15.1-27.7 19.6-9.4 4.6-19.9 7.4-34.4 9.5l0.1 1c14.6-2.1 25.2-5 34.7-9.6 9.5-4.6 17.9-10.9 27.9-19.8zm-61.3 42.9c4.5-1 14.8-3.4 26.5-7.3 11.6-3.8 24.6-9.1 34.3-15.7l-0.6-0.9c-9.6 6.6-22.5 11.9-34.1 15.7-11.5 3.8-21.8 6.2-26.3 7.2zm-218.6 92.9l37.7 14 0.3-1-37.6-14zm0.2-0.4l0.1-0.5-1.3-0.5 0.7 1.2zm-15.8-33.9c-27.7 24.5-44.7 57.3-44.7 93.5h1c0-35.8 16.8-68.5 44.4-92.7zm6.2 87c0-12.8 6.1-24 15.6-31.2l-0.6-0.8c-9.7 7.3-16 18.8-16 32zm15.3-31.6l0.3 0.4-0.4-0.9zm56 58.9l0.5 0.1 0.1-1.5-1 1.1zm-0.4-0.3c-7.4 8-18.2 12.9-30.3 12.9v1c12.3 0 23.5-5 31.1-13.3zm21.1 39.8l0.5-0.2-0.1-0.1zm24.9 49.8l-24.4-50-0.9 0.5 24.4 49.9zm2.7 0c-0.5 1.1-2.1 1.1-2.7 0l-0.9 0.5c0.9 1.8 3.6 1.8 4.5-0.1zm24.4-49.7l-0.4-0.2zm20.2-36.4l0.3-0.4-0.5-0.4-0.3 0.5zm52.8-61.4l0.1-0.5-0.4 0.9zm-0.3 0.4c8.8 7.3 14.3 18.3 14.3 30.7h1c0-12.7-5.7-24-14.7-31.5zm21.9-8.3l0.2 0.5-0.2-1zm-24.5 0.1l-0.4-0.3-0.5 0.8h0.9zm9-13.6l0.4 0.3 0.8-1.2-1.4 0.5zm-34.3 12.3l0.1 0.5h0.1zm-1.7-35.5c-18.3 9.5-30.1 18.3-39.3 27.9-9.3 9.7-16 20.3-24.3 33.4l0.8 0.5c8.4-13.1 15-23.6 24.2-33.2 9.2-9.5 20.8-18.2 39.1-27.7zm-23.8 52.3q0.1-0.1 0.3-0.2l-0.6-0.8q-0.2 0.1-0.4 0.3zm-9.8 13.5c3.2-6.1 7.1-10.8 9.8-13.5l-0.7-0.7c-2.7 2.8-6.7 7.5-10 13.8zm-24 55.8c4-10.5 15.2-39.1 24-55.8l-0.9-0.5c-8.8 16.8-20 45.4-24 55.9zm-4.6 0.4c1.1 1.8 3.8 1.6 4.6-0.4l-1-0.3c-0.4 1.2-2.1 1.3-2.7 0.2zm-5.4-9.6l5.4 9.6 0.9-0.5-5.4-9.6zm-2.6 0c0.6-1 2-1 2.6 0l0.9-0.5c-1-1.7-3.4-1.7-4.4 0.1zm-5.4 9.6l5.4-9.6-0.9-0.5-5.3 9.6zm-4.5-0.3c0.7 2 3.4 2.2 4.5 0.3l-0.9-0.5c-0.6 1.1-2.2 1-2.7-0.1zm-27.9-58.9l-0.5 0.2h0.1zm-32-26.4l-0.2 0.5h0.1zm89.5 477.3c5.7-77.6 46.8-143.3 104.2-175l-0.5-0.8c-57.7 31.8-98.9 97.8-104.7 175.7zm43.4 60.5c-11 11.7-18.3 20.9-23.9 30-5.5 9.2-9.3 18.4-13.2 30.2l1 0.3c3.9-11.7 7.6-20.8 13.1-29.9 5.5-9.1 12.7-18.2 23.7-29.9zm255.4-320.7l0.5-0.2-0.3-0.4-0.4 0.1zm-169.2 139.9c50.8-43.4 133.4-78.2 227.5-104.4l-0.3-1c-94.1 26.2-176.8 61.1-227.8 104.7zm-110.4 185.2c24.9-77.4 59-141.3 110.4-185.2l-0.7-0.8c-51.6 44.1-85.7 108.2-110.6 185.7zm-10 1.5c11.3-45.1 19.9-70 42.4-112.9l-0.8-0.5c-22.6 43-31.2 67.9-42.6 113.2zm-2.5 54.3l-0.4-0.1-0.2 0.4 0.5 0.2zm132.2-233.4c-60.2 46.2-84.2 98.1-118.7 172.9l0.9 0.4c34.5-74.8 58.4-126.5 118.4-172.5zm52.8 101.4l-0.1-0.5zm92.5 0l0.4-0.3-0.2-0.2h-0.1zm67.5 76.5l-0.1 0.5 1.4 0.2-1-1zm-97.5-11l0.1-0.5h-0.1zm-154.3 13.4c24.5-12 39-17.6 66.4-25.4l-0.2-1c-27.5 7.9-42.1 13.4-66.6 25.5zm-11.7 21.6l0.2 0.4zm-60 39l-0.2 0.5 0.3 0.1 0.2-0.2zm0.4 0.4c19.4-18.5 32.1-27.3 59.8-38.9l-0.4-1c-27.8 11.7-40.6 20.6-60.1 39.1zm76.9-113.8c-25.9 15.4-39.7 25.2-62.1 45.6l0.7 0.7c22.4-20.3 36-30.1 61.9-45.4zm130.7 6.9c-29.7 0.2-45.8 2.1-73.1 9.1l0.3 0.9c27.2-6.9 43.2-8.8 72.8-9zm78.6 6.5c-30.4-3.8-47.6-5.3-78.5-6.5l-0.1 1c31 1.2 48.1 2.7 78.5 6.5zm37.3 36.7l-67.5-76.5-0.8 0.7 67.5 76.5zm-37.3-27.2l-0.1 0.5h0.6v-0.5zm-148.4 4.5c27.5-5.9 42.8-7.7 69.9-8.5v-1c-27.1 0.8-42.5 2.6-70.1 8.5zm-0.1-0.5l-0.1-0.5h-0.1zm-77.8 48c27.1-12.3 42.7-17.5 71.4-24l-0.2-1c-28.8 6.6-44.5 11.7-71.6 24.1zm-18.2-3.5l-0.3-0.4zm-3.8-4.3c-10.1 9.2-14.2 12.9-22.6 24l0.8 0.6c8.4-11 12.4-14.7 22.4-23.9zm-18.6 21.7l0.3 0.3zm0 0.6l0.3-0.2-0.6-0.7-0.3 0.1zm-100.1 52.1c-1.1-1-2.6-0.8-3.6-0.1-0.5 0.4-0.9 0.9-1 1.5-0.2 0.6-0.1 1.3 0.4 1.9l0.8-0.6c-0.3-0.4-0.3-0.8-0.2-1.1 0-0.3 0.3-0.6 0.6-0.9 0.7-0.4 1.7-0.5 2.4 0.1zm-4.3 3.2c14 18.7 33.4 30.3 54.8 30.3v-1c-21.1 0-40.2-11.4-54-29.9zm105.4-3.2c-14 12.2-31.6 19.5-50.6 19.5v1c19.3 0 37.1-7.4 51.2-19.8zm4.3 3.3c0.4-0.6 0.5-1.3 0.4-1.9-0.2-0.6-0.6-1.1-1.1-1.5-0.9-0.7-2.4-0.9-3.6 0.1l0.7 0.8c0.7-0.6 1.7-0.5 2.3 0 0.4 0.2 0.6 0.5 0.7 0.8 0.1 0.3 0 0.7-0.2 1.1zm-17.8-219.9c-20.9 45.9-25.5 74.2-27 126.7h1c1.5-52.4 6.1-80.5 26.9-126.3zm16.4 14c24.5-39.4 54.9-69.4 79.4-87.4l-0.6-0.8c-24.6 18-55.1 48.1-79.6 87.6zm-31.4 106.8q-1 2.1-2 4.3l0.9 0.4q1-2.2 2-4.3zm317.4-260.6c-78.9 16.4-140.4 42.9-198.8 87.7l0.6 0.8c58.2-44.7 119.6-71.2 198.4-87.5zm24.6-18.7l-136.5 194 0.9 0.5 136.5-194zm-149.1 194.3l-0.4-0.3-0.6 0.8h1zm13 0v0.5h0.2l0.2-0.2zm135.6-196.5c0.3 0.9 0.3 1.8 0 2.6l1 0.4c0.4-1.1 0.4-2.3-0.1-3.4zm0.5 2.8l-0.4-0.2-0.6 1.6 1.3-1zm-1.2-4.4l0.7 1.6 0.9-0.4-0.7-1.6zm-4.1-1.9c1.7-0.5 3.4 0.3 4.1 1.9l0.9-0.4c-0.8-2-3.1-3.1-5.3-2.5zm-0.1-0.5l0.1 0.5zm-368.1 345.2l0.1 0.5 0.5-0.2-0.2-0.5zm-36.5-61.6l0.4-0.3-0.5-0.5-0.3 0.6zm14.6 69.5l-0.4 0.3 0.2 0.2 0.3-0.1zm-61.2-40.9l-0.2 0.5zm-7.1-21.4c-25-12.7-39.9-18.5-67.9-26.8l-0.3 1c28 8.3 42.8 14.1 67.8 26.7zm-162.3-15.3v-0.5zm-99.5 11.5l-0.4-0.3-0.9 1 1.4-0.2zm68.9-80.3l-0.1-0.5-0.2 0.1-0.1 0.1zm94.4 0v-0.5zm70.8 19.7l-0.2 0.5 0.5 0.2 0.2-0.5zm23.4-9.8l0.2-0.5h-0.1-0.1zm23.5 19.5l-0.5 0.1 0.2 0.4h0.3zm35 11c0.5 0 0.5 0 0.5 0q0 0 0 0 0 0 0 0 0 0 0 0 0 0 0-0.1 0 0 0-0.1 0-0.3 0-0.7c0-0.6-0.1-1.3-0.4-2.2-0.5-1.8-1.7-4-4.3-5.9l-0.6 0.9c2.4 1.6 3.5 3.7 4 5.3 0.2 0.8 0.3 1.5 0.3 2q0 0.3 0 0.5 0 0.1 0 0.2 0 0 0 0 0 0 0 0c0 0 0 0 0.5 0.1zm-3.5 13.5l0.4 0.2h0.1zm-8.5 12.3l-0.4-0.2-0.3 0.3 0.4 0.3zm0.1 0.1l0.4 0.3 0.3-0.3-0.3-0.3zm-4.7 6.5l0.4 0.3zm0 0l-0.5-0.2 0.9 0.5zm2-8.8l0.4-0.4-0.7-0.6-0.1 0.8zm0 0.1l-0.4 0.3 0.7 0.6 0.2-0.8zm2.9-23.6c0.2 0.7 0.2 2 0.1 3.7-0.1 1.6-0.4 3.7-0.8 5.9-0.7 4.5-1.8 9.6-2.7 13.9l1 0.2c0.9-4.3 2-9.4 2.7-13.9 0.4-2.3 0.7-4.3 0.8-6.1 0.1-1.7 0.1-3.1-0.2-4zm-21-2.9q0.3-0.5 1.3-0.9 1-0.5 2.5-0.7c2-0.3 4.5-0.2 7 0.1 2.5 0.3 4.9 0.8 6.8 1.6q1.4 0.6 2.3 1.3 0.9 0.8 1.1 1.5l1-0.3c-0.2-0.7-0.7-1.4-1.4-1.9-0.7-0.6-1.6-1.1-2.6-1.5-2-0.8-4.6-1.4-7.1-1.7-2.5-0.3-5.1-0.4-7.2-0.1-1.1 0.2-2 0.4-2.8 0.7-0.8 0.4-1.4 0.8-1.8 1.4zm-1.3 9.4c0-1.3-0.1-3 0.1-4.8 0.1-1.7 0.5-3.4 1.2-4.6l-0.9-0.5c-0.8 1.4-1.2 3.3-1.3 5-0.2 1.8-0.1 3.6-0.1 4.9zm-0.5 1h-0.5v0.3l0.2 0.1zm0.5 0.4l0.5-0.1v-0.2l-0.2-0.2zm2.9 23.5c-0.9-4.8-2.2-15.3-2.4-23.5l-1 0.1c0.2 8.2 1.5 18.7 2.4 23.6zm14.5 16.6c-4.8-0.3-8.1-2.4-10.3-5.5-2.2-3.1-3.5-7.1-4.2-11.1l-1 0.2c0.8 4 2 8.2 4.4 11.5 2.4 3.3 5.9 5.6 11.1 5.9zm-22.6-43.8l-0.3 0.4 0.9 0.7-0.1-1.1zm-31.2-19.4c5.5-3.6 10.1-4.5 13.9-3.7 3.8 0.7 6.9 3.1 9.4 6.2 2.5 3 4.3 6.7 5.5 9.9 1.2 3.2 1.8 5.9 1.9 7h1c-0.1-1.3-0.7-4.1-1.9-7.3-1.3-3.3-3.2-7.1-5.7-10.2-2.6-3.2-5.9-5.8-10-6.6-4.2-0.8-9 0.1-14.6 3.9zm30.3 21.5l0.4 0.2h0.1zm-19.5 23.9l-0.2-0.4-0.8 0.4 0.8 0.5zm9.9 5.9l0.3-0.4zm-0.3 0.4c11.8 8.8 18.2 13.9 28.5 23.6l0.7-0.8c-10.3-9.6-16.8-14.7-28.6-23.6zm86.1 61.3c-3.9-12.1-7.7-21.6-13.1-31.1-5.5-9.5-12.7-18.9-23.5-30.7l-0.7 0.6c10.7 11.9 17.8 21.2 23.3 30.6 5.4 9.4 9.2 18.8 13.1 30.9zm-83.8-32.5c28.2 12.2 41.2 21.5 61 40.9l0.7-0.8c-19.9-19.4-33-28.8-61.3-41zm26.1-5.2c10.3 9.6 14.4 13.5 22.9 25.1l0.8-0.6c-8.5-11.7-12.7-15.6-23-25.3zm19.8 22l-0.3 0.4zm0 0l0.3-0.4zm0.3-0.4l-0.6 0.8zm-23.3-17.8l0.3-0.4zm-95.9-23.7c29.3 6.8 45.3 12.2 72.9 25.2l0.4-0.9c-27.6-13-43.7-18.4-73-25.3zm-2.2-22.9l0.2-0.5h-0.1zm0.2-0.5c-28.2-6.2-43.9-8.1-71.6-8.9v1c27.6 0.8 43.2 2.7 71.3 8.9zm-125.2-57.6l-68.9 80.2 0.8 0.7 68.8-80.3zm-26.3 44.5l-0.1-0.5h-0.4v0.5zm0 0.5c31-4 48.5-5.6 80.1-6.8l-0.1-1c-31.5 1.2-49.1 2.8-80.1 6.8zm80-6.8c30.3 0.2 46.6 2.1 74.4 9.4l0.2-1c-27.8-7.3-44.2-9.2-74.6-9.4zm110.7 20.8l-0.1 0.4 1.2 0.6-0.6-1.2zm-36.4-11.4c14.3 3.7 25.3 7.1 36.2 11.8l0.4-0.9c-11-4.7-22-8.2-36.3-11.9zm37.1-25.6h0.5l-0.9-0.2zm7.2 27.3l0.5-0.1v-0.1zm0.7 2.9l-0.5 0.1 1-0.1zm2.2-16.7l-0.5-0.1zm1.6-10.2l-0.3-0.4-0.2 0.2v0.2zm-84.4-627.7c-1.5 3.2-2 8.3-1.4 14.5 0.6 6.2 2.2 13.5 5 21.2 5.7 15.5 16 32.8 31.8 46.3l0.6-0.8c-15.6-13.3-25.8-30.5-31.4-45.8-2.8-7.7-4.4-14.9-5-21-0.6-6.1-0.1-11 1.3-14zm5.9-8.3v0.1l1-0.1v-0.1zm3.1 19.4l0.3-0.4-1-0.8 0.2 1.3zm283.3 13c-42.1-12.7-75.6-19.2-109.5-19.3-33.9-0.1-68.3 6.3-112 19.4l0.3 0.9c43.6-13 77.9-19.4 111.7-19.3 33.8 0.1 67.2 6.6 109.2 19.3zm0.4 0.3l-0.1-0.5zm61.2-10.2l0.5 0.1 0.2-1.2-1 0.7zm1.2-19.1l-0.3-0.3zm1.6-0.5v0.5h0.1l0.1-0.1zm5.7 8.7l-0.5 0.2zm-2 240.2h0.5zm59 141.6c0.5-36.7-0.9-59-7.3-78.7-6.5-19.7-18.1-36.7-38.2-62.6l-0.8 0.7c20.1 25.8 31.6 42.7 38 62.2 6.4 19.5 7.8 41.7 7.3 78.4zm-13.9 4.5l-0.1 0.5h1l0.1-0.5zm-45.4-139.6c23 24.9 34.4 44.8 40.1 65.9 5.6 21.1 5.5 43.5 5.3 73.7h1c0.2-30.1 0.3-52.7-5.4-74-5.7-21.3-17.2-41.3-40.3-66.3zm45.9 139.6h0.5zm-45.5-142.5h0.5zm-0.5-3.6v1.3h1v-1.3zm0.5 1.3h0.5zm0-1.4h-0.5zm0-0.1h-0.5zm-12.5-53.7l0.5 0.1v-0.1zm-43.2-90q6.2-2.8 11.7-6.3l-0.5-0.8q-5.5 3.4-11.6 6.2zm43.7 90c0-34.9-16.7-66.7-43.6-90.8l-0.7 0.8c26.8 23.9 43.3 55.5 43.3 90zm-74.9 115.9c40.9-21.4 68.2-59.8 74.9-115.8l-1-0.1c-6.7 55.7-33.8 93.7-74.4 115zm33.1 140.5c5.6-35.1 5.9-68.9 0.5-94.7-5.3-25.7-16.4-43.7-33.7-46.7l-0.2 1c16.7 2.9 27.6 20.2 33 45.9 5.3 25.6 5 59.3-0.6 94.4zm-68.7 115.1l-0.4-0.3v0.1zm-141.2-254.3c-9.5 2.1-17.8 7.2-24.6 17.3-6.8 10-12 25-15.2 46.9l1 0.2c3.2-21.8 8.4-36.7 15-46.6 6.7-9.8 14.8-14.8 24-16.9zm-39.3 64.4h0.5zm-43-181.5c0 50.5 33.1 94.5 82.2 118.2l0.5-0.9c-48.9-23.5-81.7-67.3-81.7-117.3zm44.7-46.5v-0.5l-0.2 1zm-13.2-53.3c4.1 2.6 8.6 5.1 13.4 7.1l0.4-0.9c-4.7-2-9.2-4.4-13.3-7.1zm-43 149.5h-1zm-0.5 0h0.5zm0.5 6.3q0-3 0-6h-1q0 3 0 6zm-0.5-6h-0.5zm0.3 5.6h-0.1l-0.4 0.9h0.1zm-0.3 0.4h-0.5v0.4l0.3 0.1zm0.1 0l0.4 0.4 0.4-0.6-0.6-0.2zm0-6.4h-0.5zm-2.1-239.1l-0.4-0.2zm52.2 597q-0.9-0.5-1.9-1l-0.5 0.9q1 0.5 2 1zm-2.4-0.1q1 0.6 1.9 1l0.4-0.9q-0.8-0.4-1.8-1zm242.2-559.9v-0.2h-1v0.2zm-221.5-12.5l-0.1 0.5h0.1l0.1-0.1zm-62.2-13.1c20.9 15.5 35.3 20.4 62.1 26.6l0.2-0.9c-26.7-6.3-40.9-11.1-61.8-26.5zm27.1 70.1l0.3 0.3 0.4-0.4-0.4-0.3zm35.5 5q-0.1 0.1-0.3 0.2l0.6 0.8q0.1-0.1 0.3-0.2zm40.4 19.2c-14.7-5.5-28.1-11.9-39.9-19.2l-0.5 0.9c11.8 7.3 25.3 13.7 40 19.3zm68.1 62.9l-0.8 0.5zm-0.5 0.3l0.5-0.3zm0 0.1l0.4-0.3zm5.5 7.3q-2.6-3.9-5.1-7.6l-0.8 0.5q2.4 3.7 5.1 7.7zm4-7.6q-2.3 3.7-4.8 7.6l0.8 0.6q2.5-4 4.9-7.6zm0 0l0.8 0.5zm39.8-9.6l0.3 0.5 0.1-0.1zm63.8-70.1c-11.4 6.8-24.6 12.8-39.9 18.4l0.3 0.9c15.4-5.5 28.7-11.6 40.1-18.4zm0.6 0.1l-0.1-0.1-0.5 0.8v0.1zm33.7-4.2l-0.3-0.4-0.4 0.4 0.3 0.3zm-35-47.7c0.5 0.3 1.1 0.4 1.7 0.3l-0.2-1q-0.6 0.1-1-0.2zm1.5-0.2l-0.1-0.5zm-209.2 106.4l-8.6-13.7-0.9 0.5 8.7 13.7zm-25 0.1l24.5 0.7 0.1-1-24.5-0.7zm21 7.6l-20.8-8.5-0.4 0.9 20.8 8.6zm0.4-0.2l-0.7 0.1 0.2 1 0.7-0.1zm-0.6 0.6l-0.2 0.5h0.1 0.2zm26 71.4c-22.4 0-40.5-17.9-40.5-40h-1c0 22.7 18.6 41 41.5 41zm31.4-11.7q-0.2-0.4-0.2-0.9h-1q0 0.7 0.3 1.4zm20.5 38.2l-20.5-38.2-0.9 0.4 20.6 38.3zm-21-38l-0.5 0.2zm45 88.2l-0.4 0.3zm27.1-50.2l-24 49.9 0.9 0.5 24-50zm-23.5 50.2l-0.5-0.2zm43.7-86.6l-20.2 36.4 0.9 0.5 20.2-36.5zm27.2 9.9c-10.1 0-19.4-3.7-26.5-10l-0.6 0.8c7.2 6.4 16.7 10.2 27.1 10.2zm40-40c0 22.1-17.9 40-40 40v1c22.7 0 41-18.3 41-41zm-13.4-30.9l-0.1 0.5h0.1l0.2-0.1zm0.1-0.4l-0.6-0.2-0.2 1 0.6 0.1zm20.7-8l-21 8.1 0.3 0.9 21-8zm-24.3 1l24.5-0.1v-1l-24.5 0.1zm8.6-14.3l-9 13.5 0.8 0.5 9-13.5zm-33.7 13.2l34.3-12.4-0.4-1-34.3 12.4zm-25.2 16.1c7.9-8.5 17.8-14.4 25.2-16.1l-0.3-0.9c-7.5 1.7-17.6 7.8-25.7 16.3zm-0.6-0.1l-0.4-0.3zm-9.9 13.6l0.4 0.2zm-24 55.9l0.5 0.2zm-3.7 0.2l-0.4 0.3zm-5.4-9.6l-0.4 0.3zm-3.5 0l-0.4-0.2zm-5.4 9.6l-0.4-0.2zm-32.4-58.7c8.6 14.1 16.5 29.9 28.3 58.6l0.9-0.4c-11.7-28.7-19.7-44.6-28.4-58.7zm28.8 58.4l-0.5 0.2zm-60.4-84.6c6.3 1.6 12.8 5.3 18.4 10 5.7 4.7 10.4 10.5 13.2 16.1l0.9-0.4c-2.8-5.8-7.7-11.7-13.4-16.5-5.7-4.8-12.4-8.5-18.8-10.2zm-28.9-0.7v0.5h0.9l-0.5-0.8zm22.3 55.3c8.6 0 15.5-6.9 15.5-15.5h-1c0 8.1-6.5 14.5-14.5 14.5zm-15.5-15.5c0 8.6 6.9 15.5 15.5 15.5v-1c-8 0-14.5-6.4-14.5-14.5zm15.5-15.5c-8.6 0-15.5 7-15.5 15.5h1c0-8 6.5-14.5 14.5-14.5zm15.5 15.5c0-8.5-6.9-15.5-15.5-15.5v1c8 0 14.5 6.5 14.5 14.5zm150 0c0 8.1-6.5 14.5-14.5 14.5v1c8.6 0 15.5-6.9 15.5-15.5zm-14.5-14.5c8 0 14.5 6.5 14.5 14.5h1c0-8.5-6.9-15.5-15.5-15.5zm-14.5 14.5c0-8 6.5-14.5 14.5-14.5v-1c-8.6 0-15.5 7-15.5 15.5zm14.5 14.5c-8 0-14.5-6.4-14.5-14.5h-1c0 8.6 6.9 15.5 15.5 15.5zm-36 488l-0.5-0.1 1 0.4zm97.6-221.9c-15.5 12-55.7 51.4-81.1 96.6l0.9 0.5c25.3-45 65.4-84.4 80.9-96.3zm100.3-79.2l0.1 0.5 0.4-0.1v-0.3zm101.4 12.7l-19-37-0.9 0.5 19 37zm-187.1 89.6c24.4-18 109.8-63.9 186.8-88.9l-0.3-1c-77.1 25.1-162.6 71.1-187.1 89.1zm-1.8 13.1l0.3 0.4zm-85.5 181.5l-0.3-0.4h-0.1zm-35 5.5h-0.5l1 0.2zm86-6.5l-0.2-0.5-0.1 0.1zm97-71.5c-36.7 5.6-55.5 11.5-86.2 26.5l0.5 0.9c30.6-15 49.3-20.9 85.8-26.4zm92.6-0.1c-35-3.8-55.2-4.1-92.6 0l0.1 1c37.3-4.1 57.5-3.8 92.4 0zm30.5 40.5h0.5v-0.4l-0.5-0.1zm-60.5 26c41.4 2 62.1 4.9 97.5 11l0.1-0.9c-35.4-6.2-56.1-9.1-97.5-11.1zm-94.4 11c36-7.6 56.8-9.4 94.4-11v-1c-37.7 1.6-58.5 3.5-94.6 11.1zm-60.1 1.5l-0.2-0.5h-0.1zm-55.5 39l-0.4-0.3 0.7 0.7zm-37.6 15l21.5 7.5 0.3-0.9-21.5-7.5zm41.2-17.7l-0.4-0.4zm46.8-44.2c-11.7 8.4-18 13.3-28.1 22.5l0.7 0.8c10.1-9.2 16.3-14.1 28-22.5zm68.6-28.6c-27.3 7-42.4 12.9-68.6 28.6l0.5 0.8c26.1-15.6 41.1-21.5 68.4-28.4zm0.1 0.5l0.1 0.5zm73-9v-0.5zm79 15.5v-9h-1v9zm-79-4c31.1 0.4 48.2 1.4 78.5 4.5l0.1-1c-30.3-3.1-47.5-4.1-78.6-4.5zm0-0.5v-0.5zm-76.5 32l-0.1-0.5zm-89.2 21.4c11.1-8.1 17.6-12.2 29.5-19l-0.5-0.9c-11.9 6.8-18.4 10.9-29.6 19.1zm-22.5 17.2c8.8-6.8 14.6-11.4 22.5-17.2l-0.6-0.8c-7.9 5.8-13.7 10.4-22.5 17.2zm0 0.1v-0.1l-0.6-0.7zm-3.5 2.7q1.7-1.3 3.2-2.6l-0.6-0.7q-1.5 1.2-3.2 2.5zm2.9-2.9l0.3 0.4zm-49.2 72c-19 0-36.6-7.3-50.6-19.6l-0.6 0.8c14.1 12.4 31.9 19.8 51.2 19.8zm-50.9-19.2l-0.3 0.4zm101.7 0l0.4 0.4zm-50.9 33.1c21.4 0 40.8-11.6 54.8-30.3l-0.8-0.6c-13.8 18.5-32.9 29.9-54 29.9zm54.4-30.6l0.4 0.3zm-108.8 0l-0.4 0.3zm107.4-205.9l-0.4-0.2h-0.1zm-30.5 107.2l-0.4-0.2zm85-45.2l-0.2-0.5-0.1 0.1zm33.5-127.5l0.3 0.4zm74.4 87.8l124.5-175.2-0.8-0.5-124.5 175.1zm12.6-0.8h-13v1h13zm111.5-174.6l0.4 0.3 0.8-1.1-1.3 0.3zm24.9-18.2l0.4-0.3-0.6-0.8-0.3 0.3zm0-0.7l0.4 0.3-0.7-0.7zm-0.4-2.7l0.4-0.2zm-0.6-1.6l-0.5 0.2zm-43.9-0.2l0.2 0.5 0.5-0.2-0.2-0.5zm-362.9 330.1l-0.3 0.3 0.7-0.6zm12.1 21.3l21.9-7.8-0.3-1-21.9 7.9zm-11.8-21.8l-1.6-1.2-0.6 0.8 1.6 1.2zm-57-40.5l0.3-0.5h-0.1zm-162-15.3c38.3 1.7 59.6 3.6 96.3 11.5l0.2-0.9c-36.8-8-58.1-9.9-96.5-11.6zm-99.3 11.6c36.1-6.5 57.1-9.5 99.4-11.6l-0.1-1c-42.3 2.1-63.4 5.1-99.5 11.6zm42-27.2h-0.5v0.6l0.6-0.1zm121.2-54.1c-38.2-4.3-58.8-4.1-94.5 0l0.1 1c35.7-4.1 56.2-4.3 94.2 0zm71 19.8c-22.4-10.1-40.8-15-70.9-19.8l-0.2 1c30.1 4.7 48.4 9.7 70.7 19.7zm23.2-9.9c-5.4 0.4-10.8 1.6-15.1 3.4-2.1 0.9-4 1.9-5.5 3-1.5 1.1-2.7 2.4-3.3 3.7l1 0.4c0.4-1.1 1.4-2.2 2.9-3.3 1.4-1 3.2-2 5.3-2.9 4.2-1.7 9.5-2.9 14.8-3.3zm24 19.8c-2.4-5.9-4.9-10-8.6-13-3.7-3.1-8.4-5-15.3-6.8l-0.2 1c6.8 1.7 11.4 3.6 14.9 6.5 3.4 2.9 5.9 6.9 8.2 12.7zm30.4 2.2c-0.7-0.5-1.7-0.8-2.9-1.1-1.2-0.4-2.7-0.6-4.2-0.8-3.1-0.4-6.8-0.6-10.3-0.7-3.5-0.1-6.9-0.1-9.4-0.1-1.2 0.1-2.2 0.1-2.9 0.1q-0.6 0-0.8 0-0.2 0-0.3 0 0 0 0 0 0 0 0 0 0 0 0 0 0 0 0 0c0 0 0 0 0 0.5 0 0.5 0 0.5 0 0.5q0 0 0 0 0 0 0 0 0 0 0 0 0 0 0.1 0 0.1 0 0.2 0 0.3 0 0.8 0c0.7 0 1.7 0 3-0.1 2.4 0 5.8 0 9.2 0.1 3.5 0.1 7.2 0.3 10.2 0.7 1.6 0.2 3 0.4 4.1 0.7q1.8 0.5 2.6 1.1zm4.2 8.9l-0.5-0.1zm-3 13.8c2.4-5 3.1-8.1 3.5-13.7l-1-0.1c-0.4 5.6-1.1 8.5-3.4 13.3zm-8.5 12.4l8.4-12.3-0.8-0.6-8.5 12.4zm-0.7 0.1q0.1 0 0.2 0.1l0.6-0.7q-0.1-0.1-0.1-0.2zm0-0.5l-4.6 6.5 0.8 0.6 4.7-6.5zm-3.9 7.1l-0.8-0.6zm-0.4-0.3c0.4 0.1 0.4 0.1 0.4 0.1q0 0 0 0 0 0 0 0 0 0 0 0 0 0 0.1 0 0-0.1 0-0.2 0-0.1 0.1-0.5 0.2-0.6 0.5-1.8c0.3-1.6 0.9-3.8 1.4-6.3l-1-0.2c-0.5 2.5-1 4.7-1.4 6.2q-0.3 1.2-0.5 1.9 0 0.3-0.1 0.5 0 0.1 0 0.1 0 0 0 0 0 0.1 0 0.1 0 0 0 0c0 0 0 0 0.5 0.1zm1.7-8.5q0 0 0 0.1 0 0 0 0l0.7-0.8q0 0 0 0 0 0 0 0zm3.7-24.1l0.5-0.1zm-22-3l0.4 0.2zm-0.8 10.6q0-0.4-0.1-1l-1 0.1q0.1 0.5 0.1 1zm-0.6-1h-0.5zm0.8 0.9q-0.2-0.1-0.4-0.3l-0.6 0.8q0.2 0.2 0.4 0.3zm2.1 24l0.5-0.1zm30.5 4.8c-1.3 2.4-3.4 5.4-6.1 7.8-2.7 2.4-5.9 4.1-9.4 3.9v1c3.8 0.2 7.3-1.7 10.1-4.1 2.8-2.5 5-5.6 6.3-8.2zm-15.5 12.3v-0.5zm-22.2-44.7q-0.1-0.1-0.2-0.1l-0.5 0.8q0 0.1 0.1 0.1zm-0.9 0.2q-0.3 1.1-0.7 2.2l0.9 0.3q0.4-1.1 0.7-2.3zm-0.6 2.2c-4.7 10.3-12 20-19.3 23.8l0.5 0.9c7.6-4 15-13.9 19.7-24.3zm-19.3 24.7q4.8 2.7 10 5.9l0.5-0.9q-5.2-3.2-10-5.9zm38.8 29.1l-0.3 0.4zm19.7 21.9l-0.7 0.8h0.1zm2 1.6l-2-1.6-0.7 0.8 2 1.6zm-0.3 0.4l-0.3 0.4zm-2-1.6l0.3-0.4zm0.3-0.4l-0.6 0.7zm0 0c-9-7.1-14.9-11.9-23-18.1l-0.6 0.8c8 6.2 14 11 23 18.1zm-0.3 0.4l-0.4 0.4zm-22.6-18.5c-11.4-8.5-18.1-12.9-30.2-20l-0.5 0.9c12.1 7.1 18.7 11.4 30.1 19.9zm-96-23.8l0.1-0.5zm-73.7-31.4v-0.5zm0-0.5c-31.7 0.4-49.3 1.5-80.1 4.7l0.1 1c30.8-3.2 48.3-4.3 80-4.7zm-79.6 5.2v-9.4h-1v9.4zm79.6-16.3v-0.5zm74.5 9.5l-0.1 0.5zm36.6 11.6c-1.8-3.5-3-7.1-3.4-10.1l-1 0.1c0.4 3.2 1.6 6.9 3.5 10.5zm-3.4-10.1c-0.9-8.2 1-16.9 4.3-26.5l-1-0.3c-3.3 9.6-5.3 18.5-4.3 26.9zm-0.5 0.1h-0.5zm3.8-26.7c0 1.6 0.3 3.9 0.9 6.4 0.5 2.5 1.2 5.2 2.1 8 1.6 5.4 3.4 10.6 4.3 13.1l0.9-0.4c-0.9-2.4-2.7-7.6-4.3-13-0.8-2.7-1.5-5.5-2.1-7.9-0.5-2.5-0.8-4.7-0.8-6.2zm7.3 27.4l0.7 2.8 0.9-0.2-0.7-2.8zm1.2 2.7c0.5 0 0.5 0 0.5 0q0 0 0 0 0 0 0 0 0 0 0 0 0 0 0-0.1 0-0.1 0.1-0.3 0-0.3 0.1-1.1c0.1-0.9 0.3-2.2 0.5-3.8 0.4-3.2 1-7.4 1.5-11.4l-1-0.1c-0.5 4-1.1 8.2-1.5 11.3-0.2 1.6-0.4 3-0.5 3.9q-0.1 0.7-0.1 1.1-0.1 0.2-0.1 0.3 0 0.1 0 0.1 0 0 0 0 0 0 0 0 0 0 0 0 0 0 0 0c0 0 0 0 0.5 0.1zm2.7-16.7l1.6-10.2-1-0.1-1.6 10.1zm32.5 9.5l0.3-0.4-0.6-0.5-0.2 0.7z"/>
</svg>